<?xml version="1.0" encoding="UTF-8"?>
<!-- Polaroid photo 2 placeholder — plant on window sill. -->
<svg xmlns="http://www.w3.org/2000/svg" viewBox="0 0 400 300" preserveAspectRatio="xMidYMid slice" role="img" aria-hidden="true">
  <rect x="0" y="0" width="400" height="300" fill="#FFFCF5"/>
  <!-- Window frame -->
  <rect x="20" y="20" width="360" height="220" fill="#FFF5DD" stroke="#5C6470" stroke-width="3"/>
  <line x1="200" y1="20" x2="200" y2="240" stroke="#5C6470" stroke-width="2"/>
  <line x1="20" y1="130" x2="380" y2="130" stroke="#5C6470" stroke-width="2"/>
  <!-- Window sill -->
  <rect x="0" y="240" width="400" height="30" fill="#A28A6F"/>
  <rect x="0" y="270" width="400" height="30" fill="#5C4E3D"/>
  <!-- Plant pot -->
  <path d="M150 240 L 250 240 L 240 290 L 160 290 Z" fill="#E29578"/>
  <path d="M150 240 L 250 240 L 248 250 L 152 250 Z" fill="#B85A47"/>
  <!-- Leaves -->
  <g fill="#264653">
    <path d="M200 240 Q 140 160 160 60 Q 200 100 210 230"/>
    <path d="M200 240 Q 260 160 240 60 Q 200 100 190 230" opacity="0.85"/>
    <path d="M200 240 Q 150 200 100 130 Q 170 180 200 230" opacity="0.7"/>
  </g>
</svg>
